<?xml version="1.0" encoding="UTF-8"?>
<svg width="512px" height="512px" viewBox="0 0 512 512" version="1.1" xmlns="http://www.w3.org/2000/svg" xmlns:xlink="http://www.w3.org/1999/xlink">
    <title>Logo/ShopUp/Logo</title>
    <g id="Logo/ShopUp/Logo" stroke="none" stroke-width="1" fill="none" fill-rule="evenodd">
        <g id="Group-16" transform="translate(35.000000, 191.999347)">
            <path d="M293,64.8161537 L293,1.00065313 L311.726854,1.00065313 L311.726854,66.0197913 C311.726854,75.3861029 318.865406,82.7441891 328.297442,82.7441891 C337.729477,82.7441891 345.273146,75.3861029 345.273146,66.0197913 L345.273146,1.00065313 L364,1.00065313 L364,64.8161537 C364,88.0940498 348.909396,100.000653 328.431391,100.000653 C307.953387,100.000653 293,88.0940498 293,64.8161537 M424.014514,65.6500692 C424.014514,55.3493298 416.228983,47.7219163 406.028377,47.7219163 C396.09792,47.7219163 388.849435,55.7483821 388.849435,65.6500692 C388.849435,75.5485119 396.09792,83.7112395 406.028377,83.7112395 C416.228983,83.7112395 424.014514,75.9508085 424.014514,65.6500692 M389.38648,92.6753159 L389.38648,130.001302 L371,130.001302 L371,32.337316 L389.38648,32.337316 L389.38648,39.9647296 C393.679588,34.7446069 400.52773,31.0006531 409.517544,31.0006531 C424.685007,31.0006531 442.000651,42.1027413 442.000651,65.7830866 C442.000651,89.3304144 424.014514,100.568764 409.787694,100.568764 C400.928073,100.568764 393.679588,97.6229151 389.38648,92.6753159" id="Combined-Shape" fill="#FDD301"></path>
            <path d="M0,83.3595018 L16.9642327,69.8918772 C21.7745985,78.2421963 29.3869618,83.0917168 38.0682953,83.0917168 C47.5529761,83.0917168 52.6289648,76.8967401 52.6289648,70.1629279 C52.6289648,62.0836594 42.8786611,59.5233738 32.4610609,56.2936258 C19.3677959,52.2507259 4.80712647,47.1334204 4.80712647,28.2807054 C4.80712647,12.5271115 18.4348765,0 37.2681873,0 C53.1634499,0 62.246457,6.0610842 70.1276825,14.2775108 L54.7669051,25.9914705 C50.7598866,19.9336519 45.0166014,16.7006383 37.4009988,16.7006383 C28.7196653,16.7006383 24.0453502,21.4130006 24.0453502,27.6079773 C24.0453502,35.1484102 33.3939803,37.7086957 43.8148198,41.2094944 C57.0376569,45.5201793 72,51.4441053 72,70.2968203 C72,85.9197874 59.7100823,101.000653 38.2043461,101.000653 C20.5695775,101.000653 8.81738426,93.4602203 0,83.3595018 M77,1.00065313 L95.2106531,1.00065313 L95.2106531,39.2591656 C99.6301786,33.8908634 106.056513,30.5344538 113.690829,30.5344538 C129.492013,30.5344538 139,40.7371578 139,58.0563619 L139,99.0006531 L120.386686,99.0006531 L120.386686,60.6054101 C120.386686,51.4770176 116.233436,46.2421905 108.066569,46.2421905 C101.104436,46.2421905 95.3437909,51.0733369 95.3437909,62.3503525 L95.3437909,99.0006531 L77,99.0006531 L77,1.00065313 Z M195.284831,66.0006531 C195.284831,56.4427348 187.825983,48.5006531 178.5,48.5006531 C169.041573,48.5006531 161.847612,56.4427348 161.847612,66.0006531 C161.847612,75.5585714 169.041573,83.5006531 178.5,83.5006531 C187.825983,83.5006531 195.284831,75.5585714 195.284831,66.0006531 M144,66.0006531 C144,46.6171426 159.318258,31.0006531 178.5,31.0006531 C197.681742,31.0006531 213,46.6171426 213,66.0006531 C213,85.3841637 197.681742,101.000653 178.5,101.000653 C159.318258,101.000653 144,85.3841637 144,66.0006531 M271.014028,65.6500692 C271.014028,55.3493298 263.228569,47.7219163 253.028055,47.7219163 C243.09769,47.7219163 235.849271,55.7483821 235.849271,65.6500692 C235.849271,75.5485119 243.09769,83.7112395 253.028055,83.7112395 C263.228569,83.7112395 271.014028,75.9508085 271.014028,65.6500692 M236.386312,92.6753159 L236.386312,130.001302 L218,130.001302 L218,32.337316 L236.386312,32.337316 L236.386312,39.9647296 C240.67938,34.7446069 247.527459,31.0006531 256.517191,31.0006531 C271.684515,31.0006531 289,42.1027413 289,65.7830866 C289,89.3304144 271.014028,100.568764 256.787338,100.568764 C247.927799,100.568764 240.67938,97.6229151 236.386312,92.6753159" id="Shop" fill="#37B4AF"></path>
        </g>
    </g>
</svg>
